<?xml version="1.0" encoding="UTF-8" standalone="no"?>
<!DOCTYPE svg PUBLIC "-//W3C//DTD SVG 1.1//EN"
 "http://www.w3.org/Graphics/SVG/1.1/DTD/svg11.dtd">
<!-- Generated by graphviz version 2.40.1 (20161225.0304)
 -->
<!-- Title: genealogy Pages: 1 -->
<svg width="432pt" height="432pt"
 viewBox="0.00 0.00 432.00 432.00" xmlns="http://www.w3.org/2000/svg" xmlns:xlink="http://www.w3.org/1999/xlink">
<g id="graph0" class="graph" transform="scale(.1895 .1895) rotate(0) translate(4 2276)">
<title>genealogy</title>
<polygon fill="#ffffff" stroke="transparent" points="-4,4 -4,-2276 2276,-2276 2276,4 -4,4"/>
<!-- 0:0 -->
<g id="node1" class="node">
<title>0:0</title>
<ellipse fill="#ff0000" stroke="#ff0000" cx="563" cy="-2212" rx="36" ry="36"/>
</g>
<!-- 1:1 -->
<g id="node2" class="node">
<title>1:1</title>
<ellipse fill="#ff0000" stroke="#ff0000" cx="281" cy="-1973" rx="36" ry="36"/>
</g>
<!-- 0:0&#45;&#45;1:1 -->
<g id="edge1" class="edge">
<title>0:0&#45;&#45;1:1</title>
<path fill="none" stroke="#ff0000" d="M535.4472,-2188.6485C481.5354,-2142.9573 362.6662,-2042.2135 308.6646,-1996.4463"/>
</g>
<!-- 1:4 -->
<g id="node3" class="node">
<title>1:4</title>
<ellipse fill="#ff0000" stroke="#ff0000" cx="523" cy="-1973" rx="36" ry="36"/>
</g>
<!-- 0:0&#45;&#45;1:4 -->
<g id="edge2" class="edge">
<title>0:0&#45;&#45;1:4</title>
<path fill="none" stroke="#ff0000" d="M557.0548,-2176.4774C549.503,-2131.3552 536.5452,-2053.9327 528.9778,-2008.7176"/>
</g>
<!-- 1:8 -->
<g id="node4" class="node">
<title>1:8</title>
<ellipse fill="#ff0000" stroke="#ff0000" cx="602" cy="-1973" rx="36" ry="36"/>
</g>
<!-- 0:0&#45;&#45;1:8 -->
<g id="edge3" class="edge">
<title>0:0&#45;&#45;1:8</title>
<path fill="none" stroke="#ff0000" d="M568.8387,-2176.2193C576.2122,-2131.0327 588.823,-2053.7517 596.1852,-2008.6345"/>
</g>
<!-- 3:3 -->
<g id="node5" class="node">
<title>3:3</title>
<ellipse fill="#ff0000" stroke="#ff0000" cx="759" cy="-1495" rx="36" ry="36"/>
</g>
<!-- 0:0&#45;&#45;3:3 -->
<g id="edge4" class="edge">
<title>0:0&#45;&#45;3:3</title>
<path fill="none" stroke="#ff0000" d="M576.585,-2178.4612C592.6523,-2138.3923 619.8802,-2069.2095 641,-2009 677.8943,-1903.8196 691.6194,-1878.5354 717,-1770 736.7951,-1685.3497 749.5175,-1583.7831 755.3268,-1530.9385"/>
</g>
<!-- 2:3 -->
<g id="node37" class="node">
<title>2:3</title>
<ellipse fill="#ff0000" stroke="#ff0000" cx="211" cy="-1734" rx="36" ry="36"/>
</g>
<!-- 1:1&#45;&#45;2:3 -->
<g id="edge27" class="edge">
<title>1:1&#45;&#45;2:3</title>
<path fill="none" stroke="#ff0000" d="M270.8214,-1938.2473C257.5499,-1892.9346 234.4685,-1814.128 221.1909,-1768.7946"/>
</g>
<!-- 3:6 -->
<g id="node38" class="node">
<title>3:6</title>
<ellipse fill="#ff0000" stroke="#ff0000" cx="204" cy="-1495" rx="36" ry="36"/>
</g>
<!-- 1:1&#45;&#45;3:6 -->
<g id="edge28" class="edge">
<title>1:1&#45;&#45;3:6</title>
<path fill="none" stroke="#ff0000" d="M278.2026,-1936.7857C273.8363,-1884.0226 264.3819,-1783.0339 250,-1698 239.9362,-1638.497 223.4271,-1570.2397 213.1645,-1529.9713"/>
</g>
<!-- 5:2 -->
<g id="node39" class="node">
<title>5:2</title>
<ellipse fill="#ff0000" stroke="#ff0000" cx="241" cy="-1016" rx="36" ry="36"/>
</g>
<!-- 1:1&#45;&#45;5:2 -->
<g id="edge29" class="edge">
<title>1:1&#45;&#45;5:2</title>
<path fill="none" stroke="#ff0000" d="M279.4929,-1936.9426C273.1727,-1785.7312 248.8404,-1203.5827 242.5116,-1052.1657"/>
</g>
<!-- 8:6 -->
<g id="node40" class="node">
<title>8:6</title>
<ellipse fill="#ff0000" stroke="#ff0000" cx="288" cy="-299" rx="36" ry="36"/>
</g>
<!-- 1:1&#45;&#45;8:6 -->
<g id="edge30" class="edge">
<title>1:1&#45;&#45;8:6</title>
<path fill="none" stroke="#ff0000" d="M281.8937,-1936.7241C283.7808,-1856.8902 288,-1659.9526 288,-1495 288,-1495 288,-1495 288,-777 288,-612.0651 288,-415.1177 288,-335.2786"/>
</g>
<!-- 9:3 -->
<g id="node41" class="node">
<title>9:3</title>
<ellipse fill="#ff0000" stroke="#ff0000" cx="335" cy="-60" rx="36" ry="36"/>
</g>
<!-- 1:1&#45;&#45;9:3 -->
<g id="edge31" class="edge">
<title>1:1&#45;&#45;9:3</title>
<path fill="none" stroke="#ff0000" d="M287.7845,-1937.4768C302.2877,-1858.3398 335,-1661.4016 335,-1495 335,-1495 335,-1495 335,-538 335,-373.0651 335,-176.1177 335,-96.2786"/>
</g>
<!-- 2:6 -->
<g id="node45" class="node">
<title>2:6</title>
<ellipse fill="#ff0000" stroke="#ff0000" cx="429" cy="-1734" rx="36" ry="36"/>
</g>
<!-- 1:8&#45;&#45;2:6 -->
<g id="edge35" class="edge">
<title>1:8&#45;&#45;2:6</title>
<path fill="none" stroke="#ff0000" d="M580.7868,-1943.6939C547.4932,-1897.6987 483.3492,-1809.0835 450.1158,-1763.1716"/>
</g>
<!-- 2:8 -->
<g id="node46" class="node">
<title>2:8</title>
<ellipse fill="#ff0000" stroke="#ff0000" cx="602" cy="-1734" rx="36" ry="36"/>
</g>
<!-- 1:8&#45;&#45;2:8 -->
<g id="edge36" class="edge">
<title>1:8&#45;&#45;2:8</title>
<path fill="none" stroke="#ff0000" d="M602,-1936.9605C602,-1891.9711 602,-1815.4589 602,-1770.333"/>
</g>
<!-- 8:5 -->
<g id="node47" class="node">
<title>8:5</title>
<ellipse fill="#ff0000" stroke="#ff0000" cx="712" cy="-299" rx="36" ry="36"/>
</g>
<!-- 1:8&#45;&#45;8:5 -->
<g id="edge37" class="edge">
<title>1:8&#45;&#45;8:5</title>
<path fill="none" stroke="#ff0000" d="M615.2686,-1939.4163C644.5252,-1862.2387 712,-1665.7361 712,-1495 712,-1495 712,-1495 712,-777 712,-612.0651 712,-415.1177 712,-335.2786"/>
</g>
<!-- 0:1 -->
<g id="node6" class="node">
<title>0:1</title>
<ellipse fill="#0000ff" stroke="#0000ff" cx="753" cy="-2212" rx="36" ry="36"/>
</g>
<!-- 0:2 -->
<g id="node7" class="node">
<title>0:2</title>
<ellipse fill="#0000ff" stroke="#0000ff" cx="886" cy="-2212" rx="36" ry="36"/>
</g>
<!-- 1:3 -->
<g id="node8" class="node">
<title>1:3</title>
<ellipse fill="#0000ff" stroke="#0000ff" cx="826" cy="-1973" rx="36" ry="36"/>
</g>
<!-- 0:2&#45;&#45;1:3 -->
<g id="edge5" class="edge">
<title>0:2&#45;&#45;1:3</title>
<path fill="none" stroke="#0000ff" d="M877.2112,-2176.9914C865.8513,-2131.741 846.1837,-2053.3983 834.8123,-2008.1023"/>
</g>
<!-- 2:2 -->
<g id="node9" class="node">
<title>2:2</title>
<ellipse fill="#0000ff" stroke="#0000ff" cx="829" cy="-1734" rx="36" ry="36"/>
</g>
<!-- 0:2&#45;&#45;2:2 -->
<g id="edge6" class="edge">
<title>0:2&#45;&#45;2:2</title>
<path fill="none" stroke="#0000ff" d="M884.3854,-2175.8486C881.7728,-2123.1627 875.7894,-2022.2684 865,-1937 857.5188,-1877.8762 844.5407,-1809.7889 836.3806,-1769.4075"/>
</g>
<!-- 2:5 -->
<g id="node10" class="node">
<title>2:5</title>
<ellipse fill="#0000ff" stroke="#0000ff" cx="908" cy="-1734" rx="36" ry="36"/>
</g>
<!-- 0:2&#45;&#45;2:5 -->
<g id="edge7" class="edge">
<title>0:2&#45;&#45;2:5</title>
<path fill="none" stroke="#0000ff" d="M887.6716,-2175.68C891.7628,-2086.7899 902.2424,-1859.0973 906.3309,-1770.2647"/>
</g>
<!-- 2:9 -->
<g id="node11" class="node">
<title>2:9</title>
<ellipse fill="#0000ff" stroke="#0000ff" cx="987" cy="-1734" rx="36" ry="36"/>
</g>
<!-- 0:2&#45;&#45;2:9 -->
<g id="edge8" class="edge">
<title>0:2&#45;&#45;2:9</title>
<path fill="none" stroke="#0000ff" d="M893.5089,-2176.4628C912.2299,-2087.8623 960.8097,-1857.9501 979.5103,-1769.4463"/>
</g>
<!-- 3:2 -->
<g id="node53" class="node">
<title>3:2</title>
<ellipse fill="#0000ff" stroke="#0000ff" cx="908" cy="-1495" rx="36" ry="36"/>
</g>
<!-- 2:5&#45;&#45;3:2 -->
<g id="edge43" class="edge">
<title>2:5&#45;&#45;3:2</title>
<path fill="none" stroke="#0000ff" d="M908,-1697.9605C908,-1652.9711 908,-1576.4589 908,-1531.333"/>
</g>
<!-- 0:3 -->
<g id="node12" class="node">
<title>0:3</title>
<ellipse fill="#ff0000" stroke="#ff0000" cx="1258" cy="-2212" rx="36" ry="36"/>
</g>
<!-- 1:9 -->
<g id="node13" class="node">
<title>1:9</title>
<ellipse fill="#ff0000" stroke="#ff0000" cx="1121" cy="-1973" rx="36" ry="36"/>
</g>
<!-- 0:3&#45;&#45;1:9 -->
<g id="edge9" class="edge">
<title>0:3&#45;&#45;1:9</title>
<path fill="none" stroke="#ff0000" d="M1240.0896,-2180.7549C1213.8337,-2134.9508 1165.1732,-2050.0613 1138.9148,-2004.2527"/>
</g>
<!-- 2:7 -->
<g id="node14" class="node">
<title>2:7</title>
<ellipse fill="#ff0000" stroke="#ff0000" cx="1258" cy="-1734" rx="36" ry="36"/>
</g>
<!-- 0:3&#45;&#45;2:7 -->
<g id="edge10" class="edge">
<title>0:3&#45;&#45;2:7</title>
<path fill="none" stroke="#ff0000" d="M1258,-2175.68C1258,-2086.7899 1258,-1859.0973 1258,-1770.2647"/>
</g>
<!-- 4:9 -->
<g id="node15" class="node">
<title>4:9</title>
<ellipse fill="#ff0000" stroke="#ff0000" cx="1325" cy="-1256" rx="36" ry="36"/>
</g>
<!-- 0:3&#45;&#45;4:9 -->
<g id="edge11" class="edge">
<title>0:3&#45;&#45;4:9</title>
<path fill="none" stroke="#ff0000" d="M1261.5955,-2175.9377C1269.0154,-2100.602 1286.2293,-1920.9886 1297,-1770 1309.7814,-1590.8248 1319.7532,-1376.1449 1323.448,-1292.17"/>
</g>
<!-- 2:4 -->
<g id="node48" class="node">
<title>2:4</title>
<ellipse fill="#ff0000" stroke="#ff0000" cx="1066" cy="-1734" rx="36" ry="36"/>
</g>
<!-- 1:9&#45;&#45;2:4 -->
<g id="edge38" class="edge">
<title>1:9&#45;&#45;2:4</title>
<path fill="none" stroke="#ff0000" d="M1112.8846,-1937.7347C1102.4859,-1892.5478 1084.5634,-1814.6665 1074.1487,-1769.41"/>
</g>
<!-- 3:9 -->
<g id="node49" class="node">
<title>3:9</title>
<ellipse fill="#ff0000" stroke="#ff0000" cx="1041" cy="-1495" rx="36" ry="36"/>
</g>
<!-- 1:9&#45;&#45;3:9 -->
<g id="edge39" class="edge">
<title>1:9&#45;&#45;3:9</title>
<path fill="none" stroke="#ff0000" d="M1121.7246,-1936.6238C1122.1403,-1883.6614 1120.5173,-1782.4296 1105,-1698 1093.7446,-1636.7598 1069.5791,-1568.1906 1054.3746,-1528.4715"/>
</g>
<!-- 4:1 -->
<g id="node50" class="node">
<title>4:1</title>
<ellipse fill="#ff0000" stroke="#ff0000" cx="1128" cy="-1256" rx="36" ry="36"/>
</g>
<!-- 1:9&#45;&#45;4:1 -->
<g id="edge40" class="edge">
<title>1:9&#45;&#45;4:1</title>
<path fill="none" stroke="#ff0000" d="M1121.3519,-1936.9525C1122.5482,-1814.4171 1126.45,-1414.7627 1127.6474,-1292.1193"/>
</g>
<!-- 3:8 -->
<g id="node56" class="node">
<title>3:8</title>
<ellipse fill="#ff0000" stroke="#ff0000" cx="1258" cy="-1495" rx="36" ry="36"/>
</g>
<!-- 2:7&#45;&#45;3:8 -->
<g id="edge46" class="edge">
<title>2:7&#45;&#45;3:8</title>
<path fill="none" stroke="#ff0000" d="M1258,-1697.9605C1258,-1652.9711 1258,-1576.4589 1258,-1531.333"/>
</g>
<!-- 0:4 -->
<g id="node16" class="node">
<title>0:4</title>
<ellipse fill="#ff0000" stroke="#ff0000" cx="1495" cy="-2212" rx="36" ry="36"/>
</g>
<!-- 1:5 -->
<g id="node17" class="node">
<title>1:5</title>
<ellipse fill="#ff0000" stroke="#ff0000" cx="1416" cy="-1973" rx="36" ry="36"/>
</g>
<!-- 0:4&#45;&#45;1:5 -->
<g id="edge12" class="edge">
<title>0:4&#45;&#45;1:5</title>
<path fill="none" stroke="#ff0000" d="M1483.6812,-2177.7571C1468.706,-2132.4523 1442.4548,-2053.034 1427.426,-2007.5671"/>
</g>
<!-- 1:7 -->
<g id="node18" class="node">
<title>1:7</title>
<ellipse fill="#ff0000" stroke="#ff0000" cx="1495" cy="-1973" rx="36" ry="36"/>
</g>
<!-- 0:4&#45;&#45;1:7 -->
<g id="edge13" class="edge">
<title>0:4&#45;&#45;1:7</title>
<path fill="none" stroke="#ff0000" d="M1495,-2175.9605C1495,-2130.9711 1495,-2054.4589 1495,-2009.333"/>
</g>
<!-- 5:8 -->
<g id="node19" class="node">
<title>5:8</title>
<ellipse fill="#ff0000" stroke="#ff0000" cx="1544" cy="-1016" rx="36" ry="36"/>
</g>
<!-- 0:4&#45;&#45;5:8 -->
<g id="edge14" class="edge">
<title>0:4&#45;&#45;5:8</title>
<path fill="none" stroke="#ff0000" d="M1503.762,-2176.7019C1513.3379,-2136.4198 1528.2184,-2068.4223 1535,-2009 1548.8661,-1887.501 1544,-1856.2877 1544,-1734 1544,-1734 1544,-1734 1544,-1495 1544,-1329.5122 1544,-1131.8641 1544,-1052.0531"/>
</g>
<!-- 3:4 -->
<g id="node42" class="node">
<title>3:4</title>
<ellipse fill="#ff0000" stroke="#ff0000" cx="1408" cy="-1495" rx="36" ry="36"/>
</g>
<!-- 1:5&#45;&#45;3:4 -->
<g id="edge32" class="edge">
<title>1:5&#45;&#45;3:4</title>
<path fill="none" stroke="#ff0000" d="M1415.3921,-1936.68C1413.9044,-1847.7899 1410.0937,-1620.0973 1408.6069,-1531.2647"/>
</g>
<!-- 6:6 -->
<g id="node43" class="node">
<title>6:6</title>
<ellipse fill="#ff0000" stroke="#ff0000" cx="1450" cy="-777" rx="36" ry="36"/>
</g>
<!-- 1:7&#45;&#45;6:6 -->
<g id="edge33" class="edge">
<title>1:7&#45;&#45;6:6</title>
<path fill="none" stroke="#ff0000" d="M1491.4538,-1937.0643C1483.9194,-1857.5039 1467,-1660.4254 1467,-1495 1467,-1495 1467,-1495 1467,-1256 1467,-1090.408 1456.7275,-892.8177 1452.1531,-813.0376"/>
</g>
<!-- 7:1 -->
<g id="node44" class="node">
<title>7:1</title>
<ellipse fill="#ff0000" stroke="#ff0000" cx="1529" cy="-538" rx="36" ry="36"/>
</g>
<!-- 1:7&#45;&#45;7:1 -->
<g id="edge34" class="edge">
<title>1:7&#45;&#45;7:1</title>
<path fill="none" stroke="#ff0000" d="M1495.2553,-1936.7217C1495.7945,-1856.8829 1497,-1659.9363 1497,-1495 1497,-1495 1497,-1495 1497,-1016 1497,-850.488 1516.3364,-653.4576 1524.9472,-573.9229"/>
</g>
<!-- 0:5 -->
<g id="node20" class="node">
<title>0:5</title>
<ellipse fill="#0000ff" stroke="#0000ff" cx="1603" cy="-2212" rx="36" ry="36"/>
</g>
<!-- 0:6 -->
<g id="node21" class="node">
<title>0:6</title>
<ellipse fill="#ff0000" stroke="#ff0000" cx="1710" cy="-2212" rx="36" ry="36"/>
</g>
<!-- 2:0 -->
<g id="node22" class="node">
<title>2:0</title>
<ellipse fill="#ff0000" stroke="#ff0000" cx="1623" cy="-1734" rx="36" ry="36"/>
</g>
<!-- 0:6&#45;&#45;2:0 -->
<g id="edge15" class="edge">
<title>0:6&#45;&#45;2:0</title>
<path fill="none" stroke="#ff0000" d="M1703.5319,-2176.4628C1687.4059,-2087.8623 1645.5599,-1857.9501 1629.4515,-1769.4463"/>
</g>
<!-- 3:1 -->
<g id="node23" class="node">
<title>3:1</title>
<ellipse fill="#ff0000" stroke="#ff0000" cx="1670" cy="-1495" rx="36" ry="36"/>
</g>
<!-- 0:6&#45;&#45;3:1 -->
<g id="edge16" class="edge">
<title>0:6&#45;&#45;3:1</title>
<path fill="none" stroke="#ff0000" d="M1707.989,-2175.9525C1701.153,-2053.4171 1678.8571,-1653.7627 1672.015,-1531.1193"/>
</g>
<!-- 5:0 -->
<g id="node24" class="node">
<title>5:0</title>
<ellipse fill="#ff0000" stroke="#ff0000" cx="1717" cy="-1016" rx="36" ry="36"/>
</g>
<!-- 0:6&#45;&#45;5:0 -->
<g id="edge17" class="edge">
<title>0:6&#45;&#45;5:0</title>
<path fill="none" stroke="#ff0000" d="M1710.8937,-2175.7241C1712.7808,-2095.8902 1717,-1898.9526 1717,-1734 1717,-1734 1717,-1734 1717,-1495 1717,-1329.5122 1717,-1131.8641 1717,-1052.0531"/>
</g>
<!-- 6:8 -->
<g id="node25" class="node">
<title>6:8</title>
<ellipse fill="#ff0000" stroke="#ff0000" cx="1764" cy="-777" rx="36" ry="36"/>
</g>
<!-- 0:6&#45;&#45;6:8 -->
<g id="edge18" class="edge">
<title>0:6&#45;&#45;6:8</title>
<path fill="none" stroke="#ff0000" d="M1716.7845,-2176.4768C1731.2877,-2097.3398 1764,-1900.4016 1764,-1734 1764,-1734 1764,-1734 1764,-1256 1764,-1090.5122 1764,-892.8641 1764,-813.0531"/>
</g>
<!-- 3:7 -->
<g id="node51" class="node">
<title>3:7</title>
<ellipse fill="#ff0000" stroke="#ff0000" cx="1591" cy="-1495" rx="36" ry="36"/>
</g>
<!-- 2:0&#45;&#45;3:7 -->
<g id="edge41" class="edge">
<title>2:0&#45;&#45;3:7</title>
<path fill="none" stroke="#ff0000" d="M1618.2093,-1698.2193C1612.1766,-1653.1629 1601.8715,-1576.1968 1595.8235,-1531.0253"/>
</g>
<!-- 5:5 -->
<g id="node65" class="node">
<title>5:5</title>
<ellipse fill="#ff0000" stroke="#ff0000" cx="1638" cy="-1016" rx="36" ry="36"/>
</g>
<!-- 3:1&#45;&#45;5:5 -->
<g id="edge55" class="edge">
<title>3:1&#45;&#45;5:5</title>
<path fill="none" stroke="#ff0000" d="M1667.5948,-1458.9971C1661.6572,-1370.1189 1646.3552,-1141.0665 1640.4112,-1052.0933"/>
</g>
<!-- 7:9 -->
<g id="node82" class="node">
<title>7:9</title>
<ellipse fill="#ff0000" stroke="#ff0000" cx="1717" cy="-538" rx="36" ry="36"/>
</g>
<!-- 5:0&#45;&#45;7:9 -->
<g id="edge72" class="edge">
<title>5:0&#45;&#45;7:9</title>
<path fill="none" stroke="#ff0000" d="M1717,-979.68C1717,-890.7899 1717,-663.0973 1717,-574.2647"/>
</g>
<!-- 8:0 -->
<g id="node94" class="node">
<title>8:0</title>
<ellipse fill="#ff0000" stroke="#ff0000" cx="1764" cy="-299" rx="36" ry="36"/>
</g>
<!-- 6:8&#45;&#45;8:0 -->
<g id="edge84" class="edge">
<title>6:8&#45;&#45;8:0</title>
<path fill="none" stroke="#ff0000" d="M1764,-740.68C1764,-651.7899 1764,-424.0973 1764,-335.2647"/>
</g>
<!-- 8:8 -->
<g id="node95" class="node">
<title>8:8</title>
<ellipse fill="#ff0000" stroke="#ff0000" cx="1843" cy="-299" rx="36" ry="36"/>
</g>
<!-- 6:8&#45;&#45;8:8 -->
<g id="edge85" class="edge">
<title>6:8&#45;&#45;8:8</title>
<path fill="none" stroke="#ff0000" d="M1769.8733,-741.4628C1784.4986,-652.9705 1822.4218,-423.5113 1837.088,-334.7711"/>
</g>
<!-- 0:7 -->
<g id="node26" class="node">
<title>0:7</title>
<ellipse fill="#0000ff" stroke="#0000ff" cx="1823" cy="-2212" rx="36" ry="36"/>
</g>
<!-- 1:6 -->
<g id="node27" class="node">
<title>1:6</title>
<ellipse fill="#0000ff" stroke="#0000ff" cx="1823" cy="-1973" rx="36" ry="36"/>
</g>
<!-- 0:7&#45;&#45;1:6 -->
<g id="edge19" class="edge">
<title>0:7&#45;&#45;1:6</title>
<path fill="none" stroke="#0000ff" d="M1823,-2175.9605C1823,-2130.9711 1823,-2054.4589 1823,-2009.333"/>
</g>
<!-- 0:8 -->
<g id="node28" class="node">
<title>0:8</title>
<ellipse fill="#ff0000" stroke="#ff0000" cx="2063" cy="-2212" rx="36" ry="36"/>
</g>
<!-- 1:0 -->
<g id="node29" class="node">
<title>1:0</title>
<ellipse fill="#ff0000" stroke="#ff0000" cx="1925" cy="-1973" rx="36" ry="36"/>
</g>
<!-- 0:8&#45;&#45;1:0 -->
<g id="edge20" class="edge">
<title>0:8&#45;&#45;1:0</title>
<path fill="none" stroke="#ff0000" d="M2044.9589,-2180.7549C2018.5113,-2134.9508 1969.4956,-2050.0613 1943.0455,-2004.2527"/>
</g>
<!-- 3:0 -->
<g id="node30" class="node">
<title>3:0</title>
<ellipse fill="#ff0000" stroke="#ff0000" cx="2063" cy="-1495" rx="36" ry="36"/>
</g>
<!-- 0:8&#45;&#45;3:0 -->
<g id="edge21" class="edge">
<title>0:8&#45;&#45;3:0</title>
<path fill="none" stroke="#ff0000" d="M2063,-2175.9525C2063,-2053.4171 2063,-1653.7627 2063,-1531.1193"/>
</g>
<!-- 3:5 -->
<g id="node31" class="node">
<title>3:5</title>
<ellipse fill="#ff0000" stroke="#ff0000" cx="2150" cy="-1495" rx="36" ry="36"/>
</g>
<!-- 0:8&#45;&#45;3:5 -->
<g id="edge22" class="edge">
<title>0:8&#45;&#45;3:5</title>
<path fill="none" stroke="#ff0000" d="M2067.374,-2175.9525C2082.2423,-2053.4171 2130.7359,-1653.7627 2145.6173,-1531.1193"/>
</g>
<!-- 2:1 -->
<g id="node34" class="node">
<title>2:1</title>
<ellipse fill="#ff0000" stroke="#ff0000" cx="1843" cy="-1734" rx="36" ry="36"/>
</g>
<!-- 1:0&#45;&#45;2:1 -->
<g id="edge24" class="edge">
<title>1:0&#45;&#45;2:1</title>
<path fill="none" stroke="#ff0000" d="M1913.2514,-1938.7571C1897.6632,-1893.3233 1870.304,-1813.5812 1854.7268,-1768.1794"/>
</g>
<!-- 4:7 -->
<g id="node35" class="node">
<title>4:7</title>
<ellipse fill="#ff0000" stroke="#ff0000" cx="1890" cy="-1256" rx="36" ry="36"/>
</g>
<!-- 1:0&#45;&#45;4:7 -->
<g id="edge25" class="edge">
<title>1:0&#45;&#45;4:7</title>
<path fill="none" stroke="#ff0000" d="M1923.2404,-1936.9525C1917.2589,-1814.4171 1897.7499,-1414.7627 1891.7631,-1292.1193"/>
</g>
<!-- 5:7 -->
<g id="node36" class="node">
<title>5:7</title>
<ellipse fill="#ff0000" stroke="#ff0000" cx="1937" cy="-1016" rx="36" ry="36"/>
</g>
<!-- 1:0&#45;&#45;5:7 -->
<g id="edge26" class="edge">
<title>1:0&#45;&#45;5:7</title>
<path fill="none" stroke="#ff0000" d="M1925.4521,-1936.9426C1927.3482,-1785.7312 1934.6479,-1203.5827 1936.5465,-1052.1657"/>
</g>
<!-- 4:3 -->
<g id="node62" class="node">
<title>4:3</title>
<ellipse fill="#ff0000" stroke="#ff0000" cx="2016" cy="-1256" rx="36" ry="36"/>
</g>
<!-- 3:0&#45;&#45;4:3 -->
<g id="edge52" class="edge">
<title>3:0&#45;&#45;4:3</title>
<path fill="none" stroke="#ff0000" d="M2056.0144,-1459.4774C2047.1154,-1414.2251 2031.8278,-1336.4862 2022.9473,-1291.3275"/>
</g>
<!-- 6:3 -->
<g id="node63" class="node">
<title>6:3</title>
<ellipse fill="#ff0000" stroke="#ff0000" cx="2023" cy="-777" rx="36" ry="36"/>
</g>
<!-- 3:0&#45;&#45;6:3 -->
<g id="edge53" class="edge">
<title>3:0&#45;&#45;6:3</title>
<path fill="none" stroke="#ff0000" d="M2064.1783,-1459.0109C2066.5512,-1374.9629 2070.4468,-1159.2946 2055,-980 2049.901,-920.815 2037.8984,-852.7461 2030.1293,-812.3851"/>
</g>
<!-- 8:2 -->
<g id="node64" class="node">
<title>8:2</title>
<ellipse fill="#ff0000" stroke="#ff0000" cx="2078" cy="-299" rx="36" ry="36"/>
</g>
<!-- 3:0&#45;&#45;8:2 -->
<g id="edge54" class="edge">
<title>3:0&#45;&#45;8:2</title>
<path fill="none" stroke="#ff0000" d="M2064.8998,-1458.959C2068.9361,-1379.1721 2078,-1181.569 2078,-1016 2078,-1016 2078,-1016 2078,-777 2078,-612.0651 2078,-415.1177 2078,-335.2786"/>
</g>
<!-- 4:2 -->
<g id="node67" class="node">
<title>4:2</title>
<ellipse fill="#ff0000" stroke="#ff0000" cx="2157" cy="-1256" rx="36" ry="36"/>
</g>
<!-- 3:5&#45;&#45;4:2 -->
<g id="edge57" class="edge">
<title>3:5&#45;&#45;4:2</title>
<path fill="none" stroke="#ff0000" d="M2151.0555,-1458.9605C2152.3732,-1413.9711 2154.6142,-1337.4589 2155.9359,-1292.333"/>
</g>
<!-- 0:9 -->
<g id="node32" class="node">
<title>0:9</title>
<ellipse fill="#0000ff" stroke="#0000ff" cx="2150" cy="-2212" rx="36" ry="36"/>
</g>
<!-- 1:2 -->
<g id="node33" class="node">
<title>1:2</title>
<ellipse fill="#0000ff" stroke="#0000ff" cx="2150" cy="-1973" rx="36" ry="36"/>
</g>
<!-- 0:9&#45;&#45;1:2 -->
<g id="edge23" class="edge">
<title>0:9&#45;&#45;1:2</title>
<path fill="none" stroke="#0000ff" d="M2150,-2175.9605C2150,-2130.9711 2150,-2054.4589 2150,-2009.333"/>
</g>
<!-- 4:5 -->
<g id="node52" class="node">
<title>4:5</title>
<ellipse fill="#ff0000" stroke="#ff0000" cx="1811" cy="-1256" rx="36" ry="36"/>
</g>
<!-- 2:1&#45;&#45;4:5 -->
<g id="edge42" class="edge">
<title>2:1&#45;&#45;4:5</title>
<path fill="none" stroke="#ff0000" d="M1840.5948,-1698.0723C1834.6572,-1609.3796 1819.3552,-1380.8054 1813.4112,-1292.0179"/>
</g>
<!-- 6:9 -->
<g id="node79" class="node">
<title>6:9</title>
<ellipse fill="#ff0000" stroke="#ff0000" cx="1843" cy="-777" rx="36" ry="36"/>
</g>
<!-- 4:7&#45;&#45;6:9 -->
<g id="edge69" class="edge">
<title>4:7&#45;&#45;6:9</title>
<path fill="none" stroke="#ff0000" d="M1886.4674,-1219.9971C1877.7465,-1131.1189 1855.2717,-902.0665 1846.5415,-813.0933"/>
</g>
<!-- 7:5 -->
<g id="node80" class="node">
<title>7:5</title>
<ellipse fill="#ff0000" stroke="#ff0000" cx="1890" cy="-538" rx="36" ry="36"/>
</g>
<!-- 4:7&#45;&#45;7:5 -->
<g id="edge70" class="edge">
<title>4:7&#45;&#45;7:5</title>
<path fill="none" stroke="#ff0000" d="M1890,-1219.9022C1890,-1097.1959 1890,-696.9842 1890,-574.1696"/>
</g>
<!-- 6:1 -->
<g id="node88" class="node">
<title>6:1</title>
<ellipse fill="#ff0000" stroke="#ff0000" cx="1937" cy="-777" rx="36" ry="36"/>
</g>
<!-- 5:7&#45;&#45;6:1 -->
<g id="edge78" class="edge">
<title>5:7&#45;&#45;6:1</title>
<path fill="none" stroke="#ff0000" d="M1937,-979.9605C1937,-934.9711 1937,-858.4589 1937,-813.333"/>
</g>
<!-- 5:6 -->
<g id="node68" class="node">
<title>5:6</title>
<ellipse fill="#ff0000" stroke="#ff0000" cx="139" cy="-1016" rx="36" ry="36"/>
</g>
<!-- 3:6&#45;&#45;5:6 -->
<g id="edge58" class="edge">
<title>3:6&#45;&#45;5:6</title>
<path fill="none" stroke="#ff0000" d="M199.1144,-1458.9971C187.039,-1370.0101 155.8953,-1140.5056 143.8536,-1051.7672"/>
</g>
<!-- 9:4 -->
<g id="node83" class="node">
<title>9:4</title>
<ellipse fill="#ff0000" stroke="#ff0000" cx="241" cy="-60" rx="36" ry="36"/>
</g>
<!-- 5:2&#45;&#45;9:4 -->
<g id="edge73" class="edge">
<title>5:2&#45;&#45;9:4</title>
<path fill="none" stroke="#ff0000" d="M241,-979.9803C241,-828.9269 241,-247.3867 241,-96.1279"/>
</g>
<!-- 4:6 -->
<g id="node66" class="node">
<title>4:6</title>
<ellipse fill="#ff0000" stroke="#ff0000" cx="1404" cy="-1256" rx="36" ry="36"/>
</g>
<!-- 3:4&#45;&#45;4:6 -->
<g id="edge56" class="edge">
<title>3:4&#45;&#45;4:6</title>
<path fill="none" stroke="#ff0000" d="M1407.3968,-1458.9605C1406.6439,-1413.9711 1405.3633,-1337.4589 1404.6081,-1292.333"/>
</g>
<!-- 7:6 -->
<g id="node93" class="node">
<title>7:6</title>
<ellipse fill="#ff0000" stroke="#ff0000" cx="1450" cy="-538" rx="36" ry="36"/>
</g>
<!-- 6:6&#45;&#45;7:6 -->
<g id="edge83" class="edge">
<title>6:6&#45;&#45;7:6</title>
<path fill="none" stroke="#ff0000" d="M1450,-740.9605C1450,-695.9711 1450,-619.4589 1450,-574.333"/>
</g>
<!-- 9:2 -->
<g id="node96" class="node">
<title>9:2</title>
<ellipse fill="#ff0000" stroke="#ff0000" cx="1529" cy="-60" rx="36" ry="36"/>
</g>
<!-- 7:1&#45;&#45;9:2 -->
<g id="edge86" class="edge">
<title>7:1&#45;&#45;9:2</title>
<path fill="none" stroke="#ff0000" d="M1529,-501.68C1529,-412.7899 1529,-185.0973 1529,-96.2647"/>
</g>
<!-- 7:4 -->
<g id="node54" class="node">
<title>7:4</title>
<ellipse fill="#ff0000" stroke="#ff0000" cx="382" cy="-538" rx="36" ry="36"/>
</g>
<!-- 2:6&#45;&#45;7:4 -->
<g id="edge44" class="edge">
<title>2:6&#45;&#45;7:4</title>
<path fill="none" stroke="#ff0000" d="M423.095,-1698.4393C410.4718,-1619.227 382,-1422.1472 382,-1256 382,-1256 382,-1256 382,-1016 382,-851.0651 382,-654.1177 382,-574.2786"/>
</g>
<!-- 8:7 -->
<g id="node55" class="node">
<title>8:7</title>
<ellipse fill="#ff0000" stroke="#ff0000" cx="429" cy="-299" rx="36" ry="36"/>
</g>
<!-- 2:6&#45;&#45;8:7 -->
<g id="edge45" class="edge">
<title>2:6&#45;&#45;8:7</title>
<path fill="none" stroke="#ff0000" d="M429,-1697.7214C429,-1617.8823 429,-1420.9349 429,-1256 429,-1256 429,-1256 429,-777 429,-612.0651 429,-415.1177 429,-335.2786"/>
</g>
<!-- 4:0 -->
<g id="node57" class="node">
<title>4:0</title>
<ellipse fill="#ff0000" stroke="#ff0000" cx="476" cy="-1256" rx="36" ry="36"/>
</g>
<!-- 2:8&#45;&#45;4:0 -->
<g id="edge47" class="edge">
<title>2:8&#45;&#45;4:0</title>
<path fill="none" stroke="#ff0000" d="M592.7349,-1698.8515C569.4053,-1610.3469 508.446,-1379.089 485.1935,-1290.877"/>
</g>
<!-- 4:8 -->
<g id="node58" class="node">
<title>4:8</title>
<ellipse fill="#ff0000" stroke="#ff0000" cx="555" cy="-1256" rx="36" ry="36"/>
</g>
<!-- 2:8&#45;&#45;4:8 -->
<g id="edge48" class="edge">
<title>2:8&#45;&#45;4:8</title>
<path fill="none" stroke="#ff0000" d="M598.4674,-1698.0723C589.7465,-1609.3796 567.2717,-1380.8054 558.5415,-1292.0179"/>
</g>
<!-- 5:3 -->
<g id="node59" class="node">
<title>5:3</title>
<ellipse fill="#ff0000" stroke="#ff0000" cx="555" cy="-1016" rx="36" ry="36"/>
</g>
<!-- 2:8&#45;&#45;5:3 -->
<g id="edge49" class="edge">
<title>2:8&#45;&#45;5:3</title>
<path fill="none" stroke="#ff0000" d="M603.5859,-1697.7296C606.7979,-1613.5434 612.3067,-1398.4497 594,-1220 587.8547,-1160.0974 573.1306,-1091.5363 563.6354,-1051.105"/>
</g>
<!-- 5:4 -->
<g id="node60" class="node">
<title>5:4</title>
<ellipse fill="#ff0000" stroke="#ff0000" cx="634" cy="-1016" rx="36" ry="36"/>
</g>
<!-- 2:8&#45;&#45;5:4 -->
<g id="edge50" class="edge">
<title>2:8&#45;&#45;5:4</title>
<path fill="none" stroke="#ff0000" d="M603.6088,-1697.9022C609.0776,-1575.1959 626.9144,-1174.9842 632.388,-1052.1696"/>
</g>
<!-- 7:8 -->
<g id="node61" class="node">
<title>7:8</title>
<ellipse fill="#ff0000" stroke="#ff0000" cx="665" cy="-538" rx="36" ry="36"/>
</g>
<!-- 2:8&#45;&#45;7:8 -->
<g id="edge51" class="edge">
<title>2:8&#45;&#45;7:8</title>
<path fill="none" stroke="#ff0000" d="M611.7662,-1699.2433C632.9027,-1620.8532 681,-1424.0134 681,-1256 681,-1256 681,-1256 681,-1016 681,-850.7651 671.3318,-653.581 667.0264,-573.9641"/>
</g>
<!-- 4:4 -->
<g id="node71" class="node">
<title>4:4</title>
<ellipse fill="#ff0000" stroke="#ff0000" cx="955" cy="-1256" rx="36" ry="36"/>
</g>
<!-- 3:9&#45;&#45;4:4 -->
<g id="edge61" class="edge">
<title>3:9&#45;&#45;4:4</title>
<path fill="none" stroke="#ff0000" d="M1028.7696,-1461.0109C1012.4463,-1415.6472 983.6999,-1335.7589 967.3274,-1290.2588"/>
</g>
<!-- 6:2 -->
<g id="node72" class="node">
<title>6:2</title>
<ellipse fill="#ff0000" stroke="#ff0000" cx="1018" cy="-777" rx="36" ry="36"/>
</g>
<!-- 3:9&#45;&#45;6:2 -->
<g id="edge62" class="edge">
<title>3:9&#45;&#45;6:2</title>
<path fill="none" stroke="#ff0000" d="M1039.8437,-1458.9022C1035.913,-1336.1959 1023.0928,-935.9842 1019.1586,-813.1696"/>
</g>
<!-- 8:3 -->
<g id="node73" class="node">
<title>8:3</title>
<ellipse fill="#ff0000" stroke="#ff0000" cx="1065" cy="-299" rx="36" ry="36"/>
</g>
<!-- 3:9&#45;&#45;8:3 -->
<g id="edge63" class="edge">
<title>3:9&#45;&#45;8:3</title>
<path fill="none" stroke="#ff0000" d="M1044.0396,-1458.9778C1050.4977,-1379.2284 1065,-1181.6954 1065,-1016 1065,-1016 1065,-1016 1065,-777 1065,-612.0651 1065,-415.1177 1065,-335.2786"/>
</g>
<!-- 7:3 -->
<g id="node74" class="node">
<title>7:3</title>
<ellipse fill="#ff0000" stroke="#ff0000" cx="1128" cy="-538" rx="36" ry="36"/>
</g>
<!-- 4:1&#45;&#45;7:3 -->
<g id="edge64" class="edge">
<title>4:1&#45;&#45;7:3</title>
<path fill="none" stroke="#ff0000" d="M1128,-1219.9022C1128,-1097.1959 1128,-696.9842 1128,-574.1696"/>
</g>
<!-- 5:9 -->
<g id="node69" class="node">
<title>5:9</title>
<ellipse fill="#ff0000" stroke="#ff0000" cx="1223" cy="-1016" rx="36" ry="36"/>
</g>
<!-- 3:8&#45;&#45;5:9 -->
<g id="edge59" class="edge">
<title>3:8&#45;&#45;5:9</title>
<path fill="none" stroke="#ff0000" d="M1255.3693,-1458.9971C1248.8751,-1370.1189 1232.1385,-1141.0665 1225.6373,-1052.0933"/>
</g>
<!-- 7:2 -->
<g id="node70" class="node">
<title>7:2</title>
<ellipse fill="#ff0000" stroke="#ff0000" cx="1286" cy="-538" rx="36" ry="36"/>
</g>
<!-- 3:8&#45;&#45;7:2 -->
<g id="edge60" class="edge">
<title>3:8&#45;&#45;7:2</title>
<path fill="none" stroke="#ff0000" d="M1259.055,-1458.9426C1263.4791,-1307.7312 1280.5117,-725.5827 1284.9419,-574.1657"/>
</g>
<!-- 8:9 -->
<g id="node81" class="node">
<title>8:9</title>
<ellipse fill="#ff0000" stroke="#ff0000" cx="508" cy="-299" rx="36" ry="36"/>
</g>
<!-- 4:8&#45;&#45;8:9 -->
<g id="edge71" class="edge">
<title>4:8&#45;&#45;8:9</title>
<path fill="none" stroke="#ff0000" d="M546.3109,-1220.9004C536.7666,-1180.4741 521.9973,-1111.9176 516,-1052 488.5263,-777.5174 500.9066,-443.9618 506.1079,-335.1774"/>
</g>
<!-- 5:1 -->
<g id="node76" class="node">
<title>5:1</title>
<ellipse fill="#ff0000" stroke="#ff0000" cx="2016" cy="-1016" rx="36" ry="36"/>
</g>
<!-- 4:3&#45;&#45;5:1 -->
<g id="edge66" class="edge">
<title>4:3&#45;&#45;5:1</title>
<path fill="none" stroke="#ff0000" d="M2016,-1219.8097C2016,-1174.5012 2016,-1097.3541 2016,-1052.0917"/>
</g>
<!-- 9:1 -->
<g id="node91" class="node">
<title>9:1</title>
<ellipse fill="#ff0000" stroke="#ff0000" cx="1999" cy="-60" rx="36" ry="36"/>
</g>
<!-- 6:3&#45;&#45;9:1 -->
<g id="edge81" class="edge">
<title>6:3&#45;&#45;9:1</title>
<path fill="none" stroke="#ff0000" d="M2021.7934,-740.9525C2017.6918,-618.4171 2004.3142,-218.7627 2000.209,-96.1193"/>
</g>
<!-- 9:8 -->
<g id="node99" class="node">
<title>9:8</title>
<ellipse fill="#ff0000" stroke="#ff0000" cx="2078" cy="-60" rx="36" ry="36"/>
</g>
<!-- 8:2&#45;&#45;9:8 -->
<g id="edge89" class="edge">
<title>8:2&#45;&#45;9:8</title>
<path fill="none" stroke="#ff0000" d="M2078,-262.9605C2078,-217.9711 2078,-141.4589 2078,-96.333"/>
</g>
<!-- 6:0 -->
<g id="node84" class="node">
<title>6:0</title>
<ellipse fill="#ff0000" stroke="#ff0000" cx="1638" cy="-777" rx="36" ry="36"/>
</g>
<!-- 5:5&#45;&#45;6:0 -->
<g id="edge74" class="edge">
<title>5:5&#45;&#45;6:0</title>
<path fill="none" stroke="#ff0000" d="M1638,-979.9605C1638,-934.9711 1638,-858.4589 1638,-813.333"/>
</g>
<!-- 8:4 -->
<g id="node78" class="node">
<title>8:4</title>
<ellipse fill="#ff0000" stroke="#ff0000" cx="1403" cy="-299" rx="36" ry="36"/>
</g>
<!-- 4:6&#45;&#45;8:4 -->
<g id="edge68" class="edge">
<title>4:6&#45;&#45;8:4</title>
<path fill="none" stroke="#ff0000" d="M1403.9623,-1219.9426C1403.8043,-1068.7312 1403.196,-486.5827 1403.0378,-335.1657"/>
</g>
<!-- 9:6 -->
<g id="node75" class="node">
<title>9:6</title>
<ellipse fill="#ff0000" stroke="#ff0000" cx="2157" cy="-60" rx="36" ry="36"/>
</g>
<!-- 4:2&#45;&#45;9:6 -->
<g id="edge65" class="edge">
<title>4:2&#45;&#45;9:6</title>
<path fill="none" stroke="#ff0000" d="M2157,-1219.9469C2157,-1140.1359 2157,-942.4878 2157,-777 2157,-777 2157,-777 2157,-538 2157,-373.0651 2157,-176.1177 2157,-96.2786"/>
</g>
<!-- 6:4 -->
<g id="node85" class="node">
<title>6:4</title>
<ellipse fill="#ff0000" stroke="#ff0000" cx="36" cy="-777" rx="36" ry="36"/>
</g>
<!-- 5:6&#45;&#45;6:4 -->
<g id="edge75" class="edge">
<title>5:6&#45;&#45;6:4</title>
<path fill="none" stroke="#ff0000" d="M124.6783,-982.7681C105.0551,-937.2347 70.0119,-855.9209 50.3657,-810.3341"/>
</g>
<!-- 6:5 -->
<g id="node86" class="node">
<title>6:5</title>
<ellipse fill="#ff0000" stroke="#ff0000" cx="115" cy="-777" rx="36" ry="36"/>
</g>
<!-- 5:6&#45;&#45;6:5 -->
<g id="edge76" class="edge">
<title>5:6&#45;&#45;6:5</title>
<path fill="none" stroke="#ff0000" d="M135.381,-979.9605C130.8501,-934.8407 123.1354,-858.0151 118.6092,-812.9414"/>
</g>
<!-- 9:0 -->
<g id="node87" class="node">
<title>9:0</title>
<ellipse fill="#ff0000" stroke="#ff0000" cx="162" cy="-60" rx="36" ry="36"/>
</g>
<!-- 5:6&#45;&#45;9:0 -->
<g id="edge77" class="edge">
<title>5:6&#45;&#45;9:0</title>
<path fill="none" stroke="#ff0000" d="M142.3408,-980.1035C145.9532,-939.5663 151.5257,-871.6108 154,-813 165.635,-537.3914 163.5251,-204.5659 162.4239,-96.073"/>
</g>
<!-- 7:7 -->
<g id="node89" class="node">
<title>7:7</title>
<ellipse fill="#ff0000" stroke="#ff0000" cx="1207" cy="-538" rx="36" ry="36"/>
</g>
<!-- 5:9&#45;&#45;7:7 -->
<g id="edge79" class="edge">
<title>5:9&#45;&#45;7:7</title>
<path fill="none" stroke="#ff0000" d="M1221.7843,-979.68C1218.8089,-890.7899 1211.1874,-663.0973 1208.2139,-574.2647"/>
</g>
<!-- 6:7 -->
<g id="node77" class="node">
<title>6:7</title>
<ellipse fill="#ff0000" stroke="#ff0000" cx="939" cy="-777" rx="36" ry="36"/>
</g>
<!-- 4:4&#45;&#45;6:7 -->
<g id="edge67" class="edge">
<title>4:4&#45;&#45;6:7</title>
<path fill="none" stroke="#ff0000" d="M953.7974,-1219.9971C950.8286,-1131.1189 943.1776,-902.0665 940.2056,-813.0933"/>
</g>
<!-- 8:1 -->
<g id="node97" class="node">
<title>8:1</title>
<ellipse fill="#ff0000" stroke="#ff0000" cx="1144" cy="-299" rx="36" ry="36"/>
</g>
<!-- 7:3&#45;&#45;8:1 -->
<g id="edge87" class="edge">
<title>7:3&#45;&#45;8:1</title>
<path fill="none" stroke="#ff0000" d="M1130.4127,-501.9605C1133.4333,-456.8407 1138.5764,-380.0151 1141.5939,-334.9414"/>
</g>
<!-- 9:9 -->
<g id="node100" class="node">
<title>9:9</title>
<ellipse fill="#ff0000" stroke="#ff0000" cx="1403" cy="-60" rx="36" ry="36"/>
</g>
<!-- 8:4&#45;&#45;9:9 -->
<g id="edge90" class="edge">
<title>8:4&#45;&#45;9:9</title>
<path fill="none" stroke="#ff0000" d="M1403,-262.9605C1403,-217.9711 1403,-141.4589 1403,-96.333"/>
</g>
<!-- 9:7 -->
<g id="node98" class="node">
<title>9:7</title>
<ellipse fill="#ff0000" stroke="#ff0000" cx="1717" cy="-60" rx="36" ry="36"/>
</g>
<!-- 7:9&#45;&#45;9:7 -->
<g id="edge88" class="edge">
<title>7:9&#45;&#45;9:7</title>
<path fill="none" stroke="#ff0000" d="M1717,-501.68C1717,-412.7899 1717,-185.0973 1717,-96.2647"/>
</g>
<!-- 9:5 -->
<g id="node90" class="node">
<title>9:5</title>
<ellipse fill="#ff0000" stroke="#ff0000" cx="1638" cy="-60" rx="36" ry="36"/>
</g>
<!-- 6:0&#45;&#45;9:5 -->
<g id="edge80" class="edge">
<title>6:0&#45;&#45;9:5</title>
<path fill="none" stroke="#ff0000" d="M1638,-740.9525C1638,-618.4171 1638,-218.7627 1638,-96.1193"/>
</g>
<!-- 7:0 -->
<g id="node92" class="node">
<title>7:0</title>
<ellipse fill="#ff0000" stroke="#ff0000" cx="115" cy="-538" rx="36" ry="36"/>
</g>
<!-- 6:5&#45;&#45;7:0 -->
<g id="edge82" class="edge">
<title>6:5&#45;&#45;7:0</title>
<path fill="none" stroke="#ff0000" d="M115,-740.9605C115,-695.9711 115,-619.4589 115,-574.333"/>
</g>
<!-- rank:0 -->
<!-- rank:1 -->
<!-- rank:0&#45;&#45;rank:1 -->
<!-- rank:2 -->
<!-- rank:1&#45;&#45;rank:2 -->
<!-- rank:3 -->
<!-- rank:2&#45;&#45;rank:3 -->
<!-- rank:4 -->
<!-- rank:3&#45;&#45;rank:4 -->
<!-- rank:5 -->
<!-- rank:4&#45;&#45;rank:5 -->
<!-- rank:6 -->
<!-- rank:5&#45;&#45;rank:6 -->
<!-- rank:7 -->
<!-- rank:6&#45;&#45;rank:7 -->
<!-- rank:8 -->
<!-- rank:7&#45;&#45;rank:8 -->
<!-- rank:9 -->
<!-- rank:8&#45;&#45;rank:9 -->
</g>
</svg>
